<svg xmlns="http://www.w3.org/2000/svg" version="1.1" xmlns:xlink="http://www.w3.org/1999/xlink" width="28" height="28" x="0" y="0" viewBox="0 0 512 512" xml:space="preserve" fill="#f97316"><g><path d="M.117 223.061c-1.112 8.949 5.867 16.85 14.885 16.85h61.026a15 15 0 0 0 14.792-12.516c11.745-69.945 66.629-124.83 136.574-136.574a15 15 0 0 0 12.516-14.793V15.002c0-9.018-7.9-15.997-16.85-14.885h-.001C166.789 7.11 113.632 33.129 73.38 73.38 33.129 113.632 7.11 166.79.117 223.061zM351.576 390.68c-28.47 20.328-61.853 31.072-96.54 31.072-81.621 0-150.683-58.49-164.215-139.078a15 15 0 0 0-14.792-12.516H15.002c-9.018 0-15.997 7.9-14.885 16.849v.001C16.058 415.274 125.649 512 255.036 512c57.64 0 112.15-18.709 157.638-54.104 7.12-5.54 7.774-16.066 1.395-22.445l-43.17-43.17a15 15 0 0 0-19.323-1.601zM282.674 90.821c80.587 13.532 139.079 82.594 139.079 164.215 0 34.687-10.745 68.069-31.072 96.54a15 15 0 0 0 1.601 19.322l43.172 43.172c6.379 6.379 16.904 5.724 22.444-1.395l.001-.001C493.292 367.188 512 312.677 512 255.036 512 125.649 415.274 16.058 287.008.117h-.001c-8.949-1.112-16.85 5.867-16.85 14.885v61.026a15.001 15.001 0 0 0 12.517 14.793z" opacity="1"></path><path d="M265.024 151.964h-20.012c-8.284 0-15 6.716-15 15v174.998h50.012V166.964c0-8.284-6.716-15-15-15zM310.024 341.962h35.012c8.284 0 15-6.716 15-15V206.963c0-8.284-6.716-15-15-15h-35.012zM200.012 231.963h-34.974c-8.284 0-15 6.716-15 15v79.999c0 8.284 6.716 15 15 15h34.974z" opacity="1"></path></g></svg>